HIERARCHY
ROOT simHips
{
  OFFSET -149.05 98.0996 4.60761
  CHANNELS 6 Xposition Yposition Zposition Zrotation Xrotation Yrotation
  JOINT simSpine
  {
    OFFSET -0.000355721 21.3001 -0.016921
    CHANNELS 3 Zrotation Xrotation Yrotation
    JOINT simLeftArm
    {
      OFFSET 13.5181 21.3012 0
      CHANNELS 3 Zrotation Xrotation Yrotation
      JOINT simLeftForeArm
      {
        OFFSET 24.5783 0 0
        CHANNELS 3 Zrotation Xrotation Yrotation
        JOINT simLeftHand
        {
          OFFSET 24.5783 0 0
          CHANNELS 3 Zrotation Xrotation Yrotation
          End Site
          {
            OFFSET 7.32568 1.52588e-05 0.0169305
          }
        }
      }
    }
    JOINT simHead
    {
      OFFSET 0 27.4458 -0.00489235
      CHANNELS 3 Zrotation Xrotation Yrotation
      End Site
      {
        OFFSET 0 0 0
      }
    }
    JOINT simRightArm
    {
      OFFSET -13.5174 21.3012 0
      CHANNELS 3 Zrotation Xrotation Yrotation
      JOINT simRightForeArm
      {
        OFFSET -24.5783 0 0
        CHANNELS 3 Zrotation Xrotation Yrotation
        JOINT simRightHand
        {
          OFFSET -24.5783 0 0
          CHANNELS 3 Zrotation Xrotation Yrotation
          End Site
          {
            OFFSET -7.32568 1.52588e-05 0.0169305
          }
        }
      }
    }
  }
  JOINT simRightUpLeg
  {
    OFFSET -8.44614 -9.41038 0.835684
    CHANNELS 3 Zrotation Xrotation Yrotation
    JOINT simRightLeg
    {
      OFFSET 0 -40.9639 0
      CHANNELS 3 Zrotation Xrotation Yrotation
      JOINT simRightFoot
      {
        OFFSET 0 -40.9639 0
        CHANNELS 3 Zrotation Xrotation Yrotation
        End Site
        {
          OFFSET 0.50614 -9.67405 14.6709
        }
      }
    }
  }
  JOINT simLeftUpLeg
  {
    OFFSET 8.44614 -9.41038 0.835684
    CHANNELS 3 Zrotation Xrotation Yrotation
    JOINT simLeftLeg
    {
      OFFSET 0 -40.9639 0
      CHANNELS 3 Zrotation Xrotation Yrotation
      JOINT simLeftFoot
      {
        OFFSET 0 -40.9639 0
        CHANNELS 3 Zrotation Xrotation Yrotation
        End Site
        {
          OFFSET -0.50614 -9.67405 14.6709
        }
      }
    }
  }
}
MOTION
Frames:	14
Frame Time:	0.0333333
-149.05 98.0996 4.60761 -7.11689 -8.71297 151.891 13.8305 -20.2818 3.01902 -51.8541 78.9011 -36.3931 39.3355 -29.765 -77.3387 0.567369 -36.7999 -0.452868 -3.05898 12.8784 25.8266 -34.3657 57.7725 116.744 -41.967 -39.0935 81.7911 0.728076 -7.37774 0.124756 4.91756 -12.8009 -3.40267 1.90908 23.9747 -3.16015 -15.1318 -27.0747 -35.0498 16.6928 -26.8405 13.4394 -2.0802 46.2047 2.59232 -6.89699 5.65385 15.9255 
-148.882 98.2003 4.16301 -6.98459 -8.25851 150.255 13.6806 -19.6238 3.52156 -53.2347 78.9945 -34.9607 39.3605 -29.7242 -77.2922 0.601295 -35.8269 -0.436109 -2.86606 12.4196 26.1563 -34.7105 58.1199 117.36 -41.9906 -38.9995 81.6848 0.764656 -6.07824 0.0684401 4.79433 -11.8676 -3.5761 1.85123 23.521 -3.09245 -13.581 -25.7367 -33.6598 16.3886 -27.6122 11.553 -2.28305 47.1629 2.72239 -5.60941 3.48582 13.5978 
-148.888 98.2133 3.52175 -7.04964 -7.89573 148.248 13.4193 -19.1421 3.79368 -53.582 78.9615 -34.5483 39.3631 -29.722 -77.2869 0.601635 -35.6044 -0.410734 -2.72879 12.2679 26.949 -35.2107 58.0776 117.875 -42.0069 -38.9564 81.6059 0.787653 -6.08884 0.070836 4.3722 -11.1553 -3.50573 1.78528 23.1744 -3.02323 -12.4615 -25.1782 -32.1483 15.9385 -28.3198 9.64454 -2.33172 46.2183 2.71907 -5.3649 4.14045 12.0618 
-148.882 98.4325 2.74155 -6.89755 -8.2594 145.709 13.5406 -19.0179 4.24611 -55.6228 78.9613 -32.4341 39.3953 -29.7658 -77.3591 0.638302 -35.0147 -0.335864 -2.46297 12.2575 27.8967 -35.5018 57.8261 118.274 -41.9244 -38.9732 81.6415 0.837644 -6.63745 0.0768043 4.69219 -10.2311 -2.94228 1.66187 21.3919 -2.90577 -10.9102 -23.4254 -30.8239 16.565 -29.1876 6.34208 -2.24121 44.2187 2.54599 -4.71373 2.99565 10.6315 
-149.043 98.5264 1.68521 -6.96065 -8.38872 142.765 13.5585 -18.4527 4.4481 -58.5087 78.5956 -29.8549 39.2353 -29.6428 -77.3013 0.669961 -36.1427 -0.207698 -2.47162 11.9412 29.6602 -35.3328 57.9676 117.973 -42.2177 -38.7145 81.2163 0.848658 -6.43962 0.0686559 4.16449 -9.3305 -3.75401 1.48925 19.7806 -2.74721 -8.53444 -21.432 -27.7281 17.0572 -29.8269 4.61877 -2.03127 40.8609 2.28931 -5.30612 4.98329 11.0503 
-149.513 98.4094 0.42357 -7.07919 -8.80176 138.964 13.5699 -17.5961 4.58984 -60.3239 77.9649 -28.3551 39.1906 -29.247 -76.8696 0.660443 -38.6829 -0.0323274 -2.18714 11.2472 31.336 -35.7057 57.6381 118.248 -42.3841 -38.3946 80.6647 0.910049 -6.53541 0.0379526 3.80821 -9.38188 -2.36311 1.42016 19.4173 -2.70078 -7.16954 -20.4504 -25.47 18.0919 -30.0771 3.13473 -1.80135 37.1125 1.98072 -5.52538 5.8102 11.031 
-150.386 98.4341 -1.03472 -7.69631 -9.28679 133.573 13.6252 -16.0921 5.00206 -64.4074 76.2393 -24.4964 38.9537 -28.0734 -75.604 0.574397 -40.7532 0.116024 -1.74051 10.6148 32.4426 -36.2884 57.7424 118.577 -42.4836 -38.2133 80.3392 0.813979 -7.60208 0.10529 2.21551 -10.5523 -5.02835 1.26047 19.5076 -2.61367 -3.76864 -18.2942 -18.3132 18.7809 -30.0003 0.106012 -1.71154 33.7211 1.78903 -5.18676 4.37254 10.9793 
-151.706 98.2576 -2.72614 -9.02886 -10.3192 126.403 13.7485 -14.2566 5.34814 -71.0783 72.7747 -16.9421 38.0296 -26.1654 -73.7095 0.424185 -44.0927 0.267803 -1.6775 10.303 30.5157 -35.4168 58.8934 117.754 -42.7101 -37.5525 79.3198 0.839329 -7.0801 0.0723847 1.20925 -13.4638 -3.72676 1.20416 20.3007 -2.64532 -1.79937 -16.6946 -13.2408 20.1419 -30.0943 -2.04618 -1.54853 30.7014 1.56917 -5.079 3.72766 10.9747 
-153.25 98.009 -4.7502 -10.6714 -10.4879 118.972 12.0033 -11.5203 4.8 -74.2337 68.4179 -10.8637 35.9422 -23.3189 -70.6139 0.394734 -44.5748 0.332147 -1.27232 11.3155 24.4588 -34.1964 61.8334 116.837 -43.2133 -36.0704 77.3536 0.851835 -8.36583 0.130724 -0.0417944 -16.3947 -0.676633 1.18307 21.1896 -2.69127 -0.682585 -15.1435 -10.1898 20.9161 -29.7802 -2.45794 -1.48913 29.8793 1.47269 -4.40213 3.77523 8.65687 
-155.461 97.821 -7.48056 -12.8215 -8.65753 109.972 8.13586 -7.38922 5.76905 -73.9619 65.2835 -7.21829 33.4052 -20.4257 -66.5204 0.0515857 -36.9829 -0.178123 -0.837116 12.2983 19.2347 -33.745 65.8688 113.933 -43.2084 -34.2966 75.3292 1.04201 -9.83039 0.2037 -3.42019 -20.3328 1.93928 1.14132 22.8719 -2.70633 0.459115 -13.6257 -6.28266 20.0615 -28.3906 3.84803 -1.57377 31.7914 1.57965 -4.08122 0.922122 9.68695 
-158.056 97.5537 -10.3954 -15.1786 -4.13647 101.274 0.423808 -2.6995 5.74029 -69.4652 62.9937 -6.88662 29.5528 -16.4062 -59.1863 0.0958494 -24.7173 -0.30698 -0.215909 11.1708 18.2783 -24.3385 70.5603 103.184 -43.1025 -29.4041 70.7245 1.29672 -8.85024 0.373272 -8.82197 -25.2847 6.05747 1.13333 24.7079 -2.66568 0.535986 -13.2538 -6.11844 15.7324 -27.8249 10.393 -1.96576 32.5202 1.99687 -3.79174 -1.96714 12.0074 
-160.657 97.3876 -13.1567 -16.4306 -0.440216 93.9466 -6.17411 0.835083 6.60992 -61.9883 64.5814 -8.57929 25.8148 -12.4916 -51.3578 0.0754499 -16.2751 -0.362171 -0.22534 9.28885 19.8042 7.21575 74.9518 72.9416 -39.5439 -21.8273 65.0405 1.61735 -8.78231 0.266856 -13.0678 -30.0735 5.95887 1.04646 25.7066 -2.47978 0.484573 -13.7017 -6.10588 12.3438 -28.6856 13.9242 -2.51384 34.4971 2.60759 -2.98509 -5.51247 13.832 
-163.144 97.2116 -15.0323 -17.3446 -3.31958 89.7254 -5.08314 3.79128 7.31931 -52.8073 68.1434 -12.6659 23.583 -10.3749 -46.6364 0.0241158 -13.1669 -0.522033 -1.1351 7.29339 20.8055 47.952 70.354 34.55 -32.9693 -15.5699 56.9895 1.63448 -5.47867 0.250704 -9.26465 -32.8352 3.0714 1.5469 26.5195 -2.97741 -0.953415 -13.1079 -12.6122 17.3943 -32.2733 18.6265 -2.2121 38.6291 2.35103 -2.85786 -6.40694 13.7676 
-164.82 96.9981 -16.3591 -17.6313 -3.26041 86.6642 -6.54696 6.18562 7.54426 -49.2864 70.2939 -11.6343 23.7636 -10.6755 -47.0669 0.119112 -11.9738 -0.660658 -1.72681 6.1229 22.2133 63.9066 62.7008 21.0352 -26.5988 -10.9412 47.1965 1.66649 -2.63872 0.174265 -8.61178 -34.4505 -0.694492 1.84514 31.3594 -3.08495 -1.09859 -12.8773 -13.5555 18.7144 -33.8466 21.1167 -2.47555 41.0171 2.69066 -2.53496 -7.60063 13.9988 
